<svg xmlns="http://www.w3.org/2000/svg" width="241.023" height="38" viewBox="0 0 241.023 38">
  <g id="Group_14" data-name="Group 14" transform="translate(-827 -40)">
    <rect id="Rectangle_463" data-name="Rectangle 463" width="19.189" height="2.742" transform="translate(830.349 42.249)" fill="#9b1c1f"/>
    <path id="Path_8092" data-name="Path 8092" d="M3.654,19.7a10.9,10.9,0,0,1,2.929-5.2,9.149,9.149,0,0,1,6.349-2.39,9.926,9.926,0,0,1,4.264.937,9.136,9.136,0,0,1,3.28,2.508,10.686,10.686,0,0,1,1.875,4.122H3.654Zm-.328,2.788H25.89a13.624,13.624,0,0,0-2.765-8.572A12.363,12.363,0,0,0,12.864,9.046,11.962,11.962,0,0,0,2.929,13.8a13.763,13.763,0,0,0,.538,17.619,11.943,11.943,0,0,0,9.606,4.03,13.8,13.8,0,0,0,4.967-.845,12.363,12.363,0,0,0,3.936-2.46,14.709,14.709,0,0,0,3.093-4.241l-2.718-1.429a15.626,15.626,0,0,1-2.741,3.586,9.616,9.616,0,0,1-3.071,1.78,10.693,10.693,0,0,1-3.726.68,8.9,8.9,0,0,1-6.678-2.812,10.205,10.205,0,0,1-2.812-7.216M37.371,12.465h5.108V9.677H37.371V0h-3.26V9.677h-4.4v2.765h4.405V35.4h3.26Z" transform="translate(826.999 40)" fill="#fff"/>
    <rect id="Rectangle_464" data-name="Rectangle 464" width="1.359" height="26.406" transform="translate(960.315 49.044)" fill="#9b1c1f"/>
    <path id="Path_8093" data-name="Path 8093" d="M739.725,121.36c1.968,0,3.139-.937,3.139-2.483,0-1.405-.891-2.085-2.508-2.671-1.335-.493-1.8-.914-1.8-1.522,0-.68.68-1.1,1.69-1.1a4.687,4.687,0,0,1,2.132.516V112.65a6.359,6.359,0,0,0-2.249-.446c-1.781,0-3.069.937-3.069,2.483,0,1.429.867,2.109,2.483,2.695,1.335.468,1.851.867,1.851,1.547,0,.468-.374.8-1.007.937a3.466,3.466,0,0,1-.89.094,5.738,5.738,0,0,1-2.343-.633v1.5a6.487,6.487,0,0,0,2.577.538m-5.9-.164v-1.288H729.63v-2.535h3.4v-1.265h-3.4V113.7h4v-1.312H728.08V121.2Zm-10.052-8.813h-1.547v5.529a2.015,2.015,0,1,1-4.03,0v-5.529h-1.5v5.674a3.559,3.559,0,0,0,7.1,0v-5.674Zm-18.419,4.4a3,3,0,1,1,.834,2.218,3.024,3.024,0,0,1-.834-2.218m-1.547,0a4.437,4.437,0,0,0,4.007,4.523,6.532,6.532,0,0,0,5.061,2.6,7.267,7.267,0,0,0,1.477-.14v-1.359a5.989,5.989,0,0,1-1.335.14,5.457,5.457,0,0,1-3.492-1.335,4.429,4.429,0,0,0,3.419-4.428,4.569,4.569,0,1,0-9.138,0m-3.913-4.405h-1.547v8.813h1.547Zm-4.967,1.288v-1.288h-6.678v1.288h2.578v7.521h1.547V113.67Zm-10.052-1.288h-1.547v5.529a2.015,2.015,0,1,1-4.03,0v-5.529h-1.5v5.674a3.559,3.559,0,0,0,7.1,0v-5.674Zm-18.415,4.405a3,3,0,1,1,.834,2.218,3.024,3.024,0,0,1-.834-2.218m-1.547,0a4.568,4.568,0,1,0,4.568-4.568,4.488,4.488,0,0,0-4.568,4.568m-8.037.446H658.7a1.26,1.26,0,0,1,1.335,1.359,1.374,1.374,0,0,1-1.5,1.386h-1.664Zm0-1.1v-2.508h1.405a1.276,1.276,0,0,1,1.429,1.312,1.109,1.109,0,0,1-.75,1.148c-.234.023-.493.047-.75.047Zm3.28.445a1.893,1.893,0,0,0,1.125-1.734c0-1.569-1.288-2.46-3.093-2.46H655.4V121.2h3.069c1.875,0,3.139-.937,3.139-2.535a2.173,2.173,0,0,0-1.449-2.085" transform="translate(325.159 -45.91)" fill="#fff"/>
    <path id="Path_8094" data-name="Path 8094" d="M695.219,47.574V38.761h-1.547v3.7h-3.984v-3.7h-1.547v8.813h1.547V43.755h3.984v3.819ZM684.2,39.233a5.419,5.419,0,0,0-2.578-.633,4.569,4.569,0,1,0-.023,9.139,5.7,5.7,0,0,0,2.671-.6V45.7a5.8,5.8,0,0,1-2.625.633,3.139,3.139,0,0,1,.023-6.278,5.6,5.6,0,0,1,2.535.633Zm-9.864.82V38.764h-6.676v1.285h2.578V47.57h1.547V40.049Zm-13.777,4.616c.468-1.078.937-2.2,1.312-3.116.374,1.007.773,1.992,1.288,3.116Zm-2.906,2.9h1.617l.773-1.758h3.609l.773,1.758h1.617l-4.17-8.95h-.047ZM644,38.764l3.749,8.95h.047l1.828-4.358.468-1.2c.141.375.328.8.468,1.2l1.8,4.358h.047l3.749-8.95h-1.711c-.656,1.711-1.69,4.381-2.085,5.554-.492-1.382-1.476-3.584-2.273-5.459h-.047l-.966,2.249L648.54,42.4c-.3.724-.6,1.449-.773,1.921-.187-.6-.468-1.405-.8-2.226l-1.28-3.326Z" transform="translate(333.889 10.444)" fill="#fff"/>
    <path id="Path_8095" data-name="Path 8095" d="M216.65,35.4h3.233V21.861a20.574,20.574,0,0,0-1.031-7.544,8.431,8.431,0,0,0-3.21-3.843,8.833,8.833,0,0,0-4.991-1.429,10.406,10.406,0,0,0-5.108,1.288,13.508,13.508,0,0,0-4.311,3.863V0H198V35.4h3.233V25.585a33,33,0,0,1,.468-6.818,9.233,9.233,0,0,1,3.046-4.8A7.961,7.961,0,0,1,210,12.02a6.44,6.44,0,0,1,4.147,1.26,6.556,6.556,0,0,1,2.173,3.749,30.105,30.105,0,0,1,.351,5.788V35.4Z" transform="translate(675.391 40)" fill="#fff"/>
    <path id="Path_8096" data-name="Path 8096" d="M330.692,51.932a10.249,10.249,0,0,1-1.312,5.061,9.16,9.16,0,0,1-3.561,3.632,10.2,10.2,0,0,1-9.841,0,9.475,9.475,0,0,1-3.562-3.632,10.068,10.068,0,0,1-1.312-5.061,9.936,9.936,0,0,1,2.882-7.193,9.46,9.46,0,0,1,13.776,0,9.923,9.923,0,0,1,2.929,7.193m-.374,9.138A13.506,13.506,0,0,0,330.5,42.8a13.076,13.076,0,0,0-19.236.047,13.476,13.476,0,0,0,.187,18.252,13.238,13.238,0,0,0,18.862-.023" transform="translate(591.317 10.444)" fill="#fff"/>
    <path id="Path_8097" data-name="Path 8097" d="M448.61,44.154,450.695,42c-2.343-2.249-4.663-3.4-6.959-3.4a6.732,6.732,0,0,0-4.921,1.9,6.8,6.8,0,0,0-.724,8.645,13.1,13.1,0,0,0,4.615,3.467,14.291,14.291,0,0,1,4.053,2.671,3.7,3.7,0,0,1,.89,2.46,3.886,3.886,0,0,1-1.359,2.929,4.678,4.678,0,0,1-3.3,1.242,7.109,7.109,0,0,1-5.248-2.788L435.7,61.418a8.994,8.994,0,0,0,3.28,2.6,9.417,9.417,0,0,0,4.147.937,7.458,7.458,0,0,0,5.412-2.132,7.092,7.092,0,0,0,2.173-5.248,6.476,6.476,0,0,0-1.265-3.936,14.755,14.755,0,0,0-4.9-3.609,12.75,12.75,0,0,1-3.863-2.648,3.647,3.647,0,0,1-.914-2.319,3.26,3.26,0,0,1,1.125-2.436,3.768,3.768,0,0,1,2.695-1.031,7.606,7.606,0,0,1,5.014,2.553" transform="translate(493.384 10.443)" fill="#fff"/>
  </g>
</svg>
