<svg xmlns="http://www.w3.org/2000/svg" width="358" height="64.543" viewBox="0 0 358 64.543">
  <g id="Group_1" data-name="Group 1" transform="translate(-755 -556.457)">
    <g id="ethos-logo" transform="translate(754.999 556.457)">
      <rect id="Rectangle_463" data-name="Rectangle 463" width="32.601" height="4.658" transform="translate(5.691 3.821)" fill="#9b1c1f"/>
      <path id="Path_8092" data-name="Path 8092" d="M6.208,33.477a18.522,18.522,0,0,1,4.976-8.836,15.544,15.544,0,0,1,10.787-4.061,16.865,16.865,0,0,1,7.245,1.592,15.521,15.521,0,0,1,5.573,4.26,18.155,18.155,0,0,1,3.185,7H6.208ZM5.65,38.213H43.986a23.147,23.147,0,0,0-4.7-14.563,21,21,0,0,0-17.435-8.281A20.323,20.323,0,0,0,4.975,23.451,23.383,23.383,0,0,0,5.89,53.385a20.29,20.29,0,0,0,16.321,6.847A23.451,23.451,0,0,0,30.65,58.8a21,21,0,0,0,6.687-4.18,24.989,24.989,0,0,0,5.255-7.206l-4.617-2.429a26.548,26.548,0,0,1-4.656,6.092A16.338,16.338,0,0,1,28.1,54.1a18.167,18.167,0,0,1-6.33,1.155,15.121,15.121,0,0,1-11.345-4.777,17.338,17.338,0,0,1-4.777-12.26M63.491,21.178h8.678V16.44H63.491V0H57.953V16.44H50.474v4.7h7.485V60.148H63.5Z" transform="translate(0)" fill="#fff"/>
      <rect id="Rectangle_464" data-name="Rectangle 464" width="2.31" height="44.863" transform="translate(226.498 15.365)" fill="#9b1c1f"/>
      <path id="Path_8095" data-name="Path 8095" d="M229.686,60.148h5.493V37.14a34.954,34.954,0,0,0-1.752-12.818,14.323,14.323,0,0,0-5.454-6.529,15.006,15.006,0,0,0-8.479-2.429,17.679,17.679,0,0,0-8.678,2.189,22.949,22.949,0,0,0-7.325,6.564V0H198V60.148h5.493V43.468a56.059,56.059,0,0,1,.8-11.583,15.687,15.687,0,0,1,5.175-8.16,13.525,13.525,0,0,1,8.916-3.3,10.941,10.941,0,0,1,7.046,2.141,11.14,11.14,0,0,1,3.692,6.369,51.158,51.158,0,0,1,.6,9.833V60.148Z" transform="translate(-119.183)" fill="#fff"/>
      <path id="Path_8096" data-name="Path 8096" d="M346.692,61.249a17.413,17.413,0,0,1-2.23,8.6,15.562,15.562,0,0,1-6.051,6.17,17.33,17.33,0,0,1-16.719,0,16.1,16.1,0,0,1-6.051-6.17,17.106,17.106,0,0,1-2.23-8.6,16.881,16.881,0,0,1,4.9-12.221,16.073,16.073,0,0,1,23.406,0,16.858,16.858,0,0,1,4.976,12.221m-.636,15.525a22.946,22.946,0,0,0,.318-31.048,22.216,22.216,0,0,0-32.681.08,22.9,22.9,0,0,0,.318,31.009,22.491,22.491,0,0,0,32.045-.039" transform="translate(-185.275 -23.233)" fill="#fff"/>
      <path id="Path_8097" data-name="Path 8097" d="M457.633,48.038l3.542-3.661c-3.981-3.821-7.922-5.772-11.823-5.772a11.437,11.437,0,0,0-8.361,3.224,11.554,11.554,0,0,0-1.231,14.688,22.25,22.25,0,0,0,7.842,5.891,24.28,24.28,0,0,1,6.886,4.537A6.29,6.29,0,0,1,456,71.126a6.6,6.6,0,0,1-2.31,4.976,7.948,7.948,0,0,1-5.612,2.111,12.077,12.077,0,0,1-8.916-4.736L435.7,77.369a15.28,15.28,0,0,0,5.573,4.418,16,16,0,0,0,7.046,1.592,12.67,12.67,0,0,0,9.2-3.622,12.049,12.049,0,0,0,3.692-8.916,11,11,0,0,0-2.15-6.687,25.068,25.068,0,0,0-8.32-6.131,21.664,21.664,0,0,1-6.564-4.5,6.2,6.2,0,0,1-1.553-3.94,5.538,5.538,0,0,1,1.912-4.139,6.4,6.4,0,0,1,4.578-1.752,12.922,12.922,0,0,1,8.518,4.338" transform="translate(-262.263 -23.237)" fill="#fff"/>
    </g>
    <g id="Symbol_1_1" data-name="Symbol 1 – 1">
      <text id="RFID_SYSTEM" data-name="RFID
        SYSTEM" transform="translate(1015 587)" fill="#fff" font-size="21" font-family="Brother-1816-Medium, 'Brother 1816'" font-weight="500" letter-spacing="0.15em"><tspan x="0" y="0">RFID</tspan><tspan x="0" y="29">SYSTEM</tspan></text>
    </g>
  </g>
</svg>
